<mxfile host="Electron" modified="2023-09-06T09:23:02.042Z" agent="Mozilla/5.0 (Windows NT 10.0; Win64; x64) AppleWebKit/537.36 (KHTML, like Gecko) draw.io/21.3.7 Chrome/112.0.5615.204 Electron/24.5.0 Safari/537.36" etag="RVJmEXaR0HUwfNUVpd7p" version="21.3.7" type="device">
  <diagram name="Page-1" id="Zc54gNBFulKKJqmMb2cP">
    <mxGraphModel dx="918" dy="584" grid="1" gridSize="10" guides="1" tooltips="1" connect="1" arrows="1" fold="1" page="1" pageScale="1" pageWidth="2336" pageHeight="1654" math="0" shadow="0">
      <root>
        <mxCell id="0" />
        <mxCell id="1" parent="0" />
        <mxCell id="f-rcmogYOw8T58UDo0su-19" style="edgeStyle=orthogonalEdgeStyle;rounded=0;orthogonalLoop=1;jettySize=auto;html=1;exitX=0.5;exitY=1;exitDx=0;exitDy=0;entryX=0.5;entryY=0;entryDx=0;entryDy=0;" edge="1" parent="1" source="f-rcmogYOw8T58UDo0su-1" target="f-rcmogYOw8T58UDo0su-2">
          <mxGeometry relative="1" as="geometry" />
        </mxCell>
        <mxCell id="f-rcmogYOw8T58UDo0su-1" value="Select a test" style="rounded=0;whiteSpace=wrap;html=1;" vertex="1" parent="1">
          <mxGeometry x="340" y="170" width="120" height="60" as="geometry" />
        </mxCell>
        <mxCell id="f-rcmogYOw8T58UDo0su-11" style="edgeStyle=orthogonalEdgeStyle;rounded=0;orthogonalLoop=1;jettySize=auto;html=1;exitX=0.5;exitY=1;exitDx=0;exitDy=0;entryX=0.5;entryY=0;entryDx=0;entryDy=0;" edge="1" parent="1" source="f-rcmogYOw8T58UDo0su-2" target="f-rcmogYOw8T58UDo0su-3">
          <mxGeometry relative="1" as="geometry" />
        </mxCell>
        <mxCell id="f-rcmogYOw8T58UDo0su-2" value="Select category" style="rounded=0;whiteSpace=wrap;html=1;" vertex="1" parent="1">
          <mxGeometry x="340" y="250" width="120" height="60" as="geometry" />
        </mxCell>
        <mxCell id="f-rcmogYOw8T58UDo0su-12" style="edgeStyle=orthogonalEdgeStyle;rounded=0;orthogonalLoop=1;jettySize=auto;html=1;exitX=0.5;exitY=1;exitDx=0;exitDy=0;entryX=0.5;entryY=0;entryDx=0;entryDy=0;" edge="1" parent="1" source="f-rcmogYOw8T58UDo0su-3" target="f-rcmogYOw8T58UDo0su-4">
          <mxGeometry relative="1" as="geometry" />
        </mxCell>
        <mxCell id="f-rcmogYOw8T58UDo0su-3" value="Find positive outcomes" style="rounded=0;whiteSpace=wrap;html=1;" vertex="1" parent="1">
          <mxGeometry x="340" y="330" width="120" height="60" as="geometry" />
        </mxCell>
        <mxCell id="f-rcmogYOw8T58UDo0su-13" style="edgeStyle=orthogonalEdgeStyle;rounded=0;orthogonalLoop=1;jettySize=auto;html=1;exitX=0.5;exitY=1;exitDx=0;exitDy=0;entryX=0.5;entryY=0;entryDx=0;entryDy=0;" edge="1" parent="1" source="f-rcmogYOw8T58UDo0su-4" target="f-rcmogYOw8T58UDo0su-5">
          <mxGeometry relative="1" as="geometry" />
        </mxCell>
        <mxCell id="f-rcmogYOw8T58UDo0su-4" value="Find negative outcomes" style="rounded=0;whiteSpace=wrap;html=1;" vertex="1" parent="1">
          <mxGeometry x="340" y="410" width="120" height="60" as="geometry" />
        </mxCell>
        <mxCell id="f-rcmogYOw8T58UDo0su-14" style="edgeStyle=orthogonalEdgeStyle;rounded=0;orthogonalLoop=1;jettySize=auto;html=1;exitX=0;exitY=0.5;exitDx=0;exitDy=0;entryX=0;entryY=0.5;entryDx=0;entryDy=0;" edge="1" parent="1" source="f-rcmogYOw8T58UDo0su-5" target="f-rcmogYOw8T58UDo0su-2">
          <mxGeometry relative="1" as="geometry">
            <Array as="points">
              <mxPoint x="260" y="520" />
              <mxPoint x="260" y="280" />
            </Array>
          </mxGeometry>
        </mxCell>
        <mxCell id="f-rcmogYOw8T58UDo0su-15" style="edgeStyle=orthogonalEdgeStyle;rounded=0;orthogonalLoop=1;jettySize=auto;html=1;exitX=0.5;exitY=1;exitDx=0;exitDy=0;entryX=0.5;entryY=0;entryDx=0;entryDy=0;" edge="1" parent="1" source="f-rcmogYOw8T58UDo0su-5" target="f-rcmogYOw8T58UDo0su-6">
          <mxGeometry relative="1" as="geometry" />
        </mxCell>
        <mxCell id="f-rcmogYOw8T58UDo0su-5" value="Calculate disorder of set" style="rounded=0;whiteSpace=wrap;html=1;" vertex="1" parent="1">
          <mxGeometry x="340" y="490" width="120" height="60" as="geometry" />
        </mxCell>
        <mxCell id="f-rcmogYOw8T58UDo0su-18" style="edgeStyle=orthogonalEdgeStyle;rounded=0;orthogonalLoop=1;jettySize=auto;html=1;exitX=0.5;exitY=1;exitDx=0;exitDy=0;entryX=0.5;entryY=0;entryDx=0;entryDy=0;" edge="1" parent="1" source="f-rcmogYOw8T58UDo0su-6" target="f-rcmogYOw8T58UDo0su-17">
          <mxGeometry relative="1" as="geometry" />
        </mxCell>
        <mxCell id="f-rcmogYOw8T58UDo0su-6" value="Calculate quality of the test" style="rounded=0;whiteSpace=wrap;html=1;" vertex="1" parent="1">
          <mxGeometry x="340" y="570" width="120" height="60" as="geometry" />
        </mxCell>
        <mxCell id="f-rcmogYOw8T58UDo0su-7" value="" style="shape=process;whiteSpace=wrap;html=1;backgroundOutline=1;" vertex="1" parent="1">
          <mxGeometry x="610" y="190" width="120" height="60" as="geometry" />
        </mxCell>
        <mxCell id="f-rcmogYOw8T58UDo0su-8" value="" style="shape=process;whiteSpace=wrap;html=1;backgroundOutline=1;" vertex="1" parent="1">
          <mxGeometry x="610" y="250" width="120" height="60" as="geometry" />
        </mxCell>
        <mxCell id="f-rcmogYOw8T58UDo0su-9" value="" style="shape=process;whiteSpace=wrap;html=1;backgroundOutline=1;" vertex="1" parent="1">
          <mxGeometry x="610" y="310" width="120" height="60" as="geometry" />
        </mxCell>
        <mxCell id="f-rcmogYOw8T58UDo0su-20" style="edgeStyle=orthogonalEdgeStyle;rounded=0;orthogonalLoop=1;jettySize=auto;html=1;exitX=0;exitY=0.5;exitDx=0;exitDy=0;entryX=0;entryY=0.5;entryDx=0;entryDy=0;" edge="1" parent="1" source="f-rcmogYOw8T58UDo0su-17" target="f-rcmogYOw8T58UDo0su-1">
          <mxGeometry relative="1" as="geometry">
            <Array as="points">
              <mxPoint x="200" y="680" />
              <mxPoint x="200" y="200" />
            </Array>
          </mxGeometry>
        </mxCell>
        <mxCell id="f-rcmogYOw8T58UDo0su-23" style="edgeStyle=orthogonalEdgeStyle;rounded=0;orthogonalLoop=1;jettySize=auto;html=1;exitX=0.5;exitY=1;exitDx=0;exitDy=0;entryX=0.5;entryY=0;entryDx=0;entryDy=0;" edge="1" parent="1" source="f-rcmogYOw8T58UDo0su-17" target="f-rcmogYOw8T58UDo0su-21">
          <mxGeometry relative="1" as="geometry" />
        </mxCell>
        <mxCell id="f-rcmogYOw8T58UDo0su-17" value="Append to list of qualities." style="rounded=0;whiteSpace=wrap;html=1;" vertex="1" parent="1">
          <mxGeometry x="340" y="650" width="120" height="60" as="geometry" />
        </mxCell>
        <mxCell id="f-rcmogYOw8T58UDo0su-24" style="edgeStyle=orthogonalEdgeStyle;rounded=0;orthogonalLoop=1;jettySize=auto;html=1;exitX=0.5;exitY=1;exitDx=0;exitDy=0;entryX=0.5;entryY=0;entryDx=0;entryDy=0;" edge="1" parent="1" source="f-rcmogYOw8T58UDo0su-21" target="f-rcmogYOw8T58UDo0su-22">
          <mxGeometry relative="1" as="geometry" />
        </mxCell>
        <mxCell id="f-rcmogYOw8T58UDo0su-21" value="Pop the element of the list with best quality." style="rounded=0;whiteSpace=wrap;html=1;" vertex="1" parent="1">
          <mxGeometry x="340" y="730" width="120" height="60" as="geometry" />
        </mxCell>
        <mxCell id="f-rcmogYOw8T58UDo0su-25" style="edgeStyle=orthogonalEdgeStyle;rounded=0;orthogonalLoop=1;jettySize=auto;html=1;exitX=0;exitY=0.5;exitDx=0;exitDy=0;entryX=0.5;entryY=0;entryDx=0;entryDy=0;" edge="1" parent="1" source="f-rcmogYOw8T58UDo0su-22" target="f-rcmogYOw8T58UDo0su-1">
          <mxGeometry relative="1" as="geometry">
            <Array as="points">
              <mxPoint x="70" y="840" />
              <mxPoint x="70" y="150" />
              <mxPoint x="400" y="150" />
            </Array>
          </mxGeometry>
        </mxCell>
        <mxCell id="f-rcmogYOw8T58UDo0su-22" value="Add it to the decision tree." style="rounded=0;whiteSpace=wrap;html=1;" vertex="1" parent="1">
          <mxGeometry x="340" y="810" width="120" height="60" as="geometry" />
        </mxCell>
        <mxCell id="f-rcmogYOw8T58UDo0su-26" value="&lt;font style=&quot;font-size: 16px;&quot;&gt;Some thoughts related to storage:&lt;/font&gt;" style="text;html=1;align=center;verticalAlign=middle;resizable=0;points=[];autosize=1;strokeColor=none;fillColor=none;" vertex="1" parent="1">
          <mxGeometry x="540" y="140" width="260" height="30" as="geometry" />
        </mxCell>
        <mxCell id="f-rcmogYOw8T58UDo0su-27" value="&lt;font style=&quot;font-size: 29px;&quot;&gt;Decision Tree&lt;/font&gt;" style="text;html=1;align=center;verticalAlign=middle;resizable=0;points=[];autosize=1;strokeColor=none;fillColor=none;" vertex="1" parent="1">
          <mxGeometry x="300" y="40" width="200" height="50" as="geometry" />
        </mxCell>
      </root>
    </mxGraphModel>
  </diagram>
</mxfile>
